<mxfile host="app.diagrams.net" modified="2023-11-28T02:59:40.312Z" agent="Mozilla/5.0 (Windows NT 10.0; Win64; x64) AppleWebKit/537.36 (KHTML, like Gecko) Chrome/119.0.0.0 Safari/537.36" etag="FXFdrOxr-4gaU2YOJzMq" version="22.1.4" type="device">
  <diagram id="C5RBs43oDa-KdzZeNtuy" name="Page-1">
    <mxGraphModel dx="3987" dy="2089" grid="1" gridSize="10" guides="1" tooltips="1" connect="1" arrows="1" fold="1" page="0" pageScale="1" pageWidth="827" pageHeight="1169" math="0" shadow="0">
      <root>
        <mxCell id="WIyWlLk6GJQsqaUBKTNV-0" />
        <mxCell id="WIyWlLk6GJQsqaUBKTNV-1" parent="WIyWlLk6GJQsqaUBKTNV-0" />
        <mxCell id="yi7wajlVVCb0jUOOM2uV-0" value="&lt;i&gt;Pizza&lt;/i&gt;" style="swimlane;fontStyle=1;align=center;verticalAlign=top;childLayout=stackLayout;horizontal=1;startSize=26;horizontalStack=0;resizeParent=1;resizeParentMax=0;resizeLast=0;collapsible=1;marginBottom=0;whiteSpace=wrap;html=1;fontSize=16;" parent="WIyWlLk6GJQsqaUBKTNV-1" vertex="1">
          <mxGeometry x="110" y="10" width="330" height="410" as="geometry" />
        </mxCell>
        <mxCell id="yi7wajlVVCb0jUOOM2uV-1" value="&lt;div&gt;#extraCheese:boolean&amp;nbsp;&lt;/div&gt;&lt;div&gt;#extraSauce:boolean&lt;/div&gt;&lt;div&gt;#sauce:Sauce&lt;/div&gt;&lt;div&gt;#size:Size&lt;/div&gt;&lt;div&gt;&lt;span style=&quot;background-color: initial;&quot;&gt;#toppings:ArrayList&amp;lt;Topping&amp;gt;&lt;/span&gt;&lt;br&gt;&lt;/div&gt;" style="text;strokeColor=none;fillColor=none;align=left;verticalAlign=top;spacingLeft=4;spacingRight=4;overflow=hidden;rotatable=0;points=[[0,0.5],[1,0.5]];portConstraint=eastwest;whiteSpace=wrap;html=1;fontSize=16;" parent="yi7wajlVVCb0jUOOM2uV-0" vertex="1">
          <mxGeometry y="26" width="330" height="114" as="geometry" />
        </mxCell>
        <mxCell id="yi7wajlVVCb0jUOOM2uV-2" value="" style="line;strokeWidth=1;fillColor=none;align=left;verticalAlign=middle;spacingTop=-1;spacingLeft=3;spacingRight=3;rotatable=0;labelPosition=right;points=[];portConstraint=eastwest;strokeColor=inherit;fontSize=16;" parent="yi7wajlVVCb0jUOOM2uV-0" vertex="1">
          <mxGeometry y="140" width="330" height="8" as="geometry" />
        </mxCell>
        <mxCell id="yi7wajlVVCb0jUOOM2uV-3" value="+Pizza()&lt;br&gt;+price(): abstract double&lt;br&gt;+getToppings():ArrayList&amp;lt;Topping&amp;gt;&lt;br&gt;+addToppings(Topping topping):void&lt;br&gt;+getSize():Size&lt;br&gt;+setSize(Size size):void&lt;br&gt;+getSauce():Sauce&lt;br&gt;+setSauce(Sauce sause): void&lt;br&gt;+isExtraSauce():boolean&lt;br&gt;+setExtraSauce(boolean extraSauce):void&lt;br&gt;+isExtraCheese():boolean&lt;br&gt;+setExtraCheese(boolean extraCheese):void&lt;br&gt;+toString():String" style="text;strokeColor=none;fillColor=none;align=left;verticalAlign=top;spacingLeft=4;spacingRight=4;overflow=hidden;rotatable=0;points=[[0,0.5],[1,0.5]];portConstraint=eastwest;whiteSpace=wrap;html=1;fontSize=16;" parent="yi7wajlVVCb0jUOOM2uV-0" vertex="1">
          <mxGeometry y="148" width="330" height="262" as="geometry" />
        </mxCell>
        <mxCell id="yi7wajlVVCb0jUOOM2uV-5" value="BuildYourOwn&lt;br&gt;" style="swimlane;fontStyle=1;align=center;verticalAlign=top;childLayout=stackLayout;horizontal=1;startSize=26;horizontalStack=0;resizeParent=1;resizeParentMax=0;resizeLast=0;collapsible=1;marginBottom=0;whiteSpace=wrap;html=1;fontSize=16;" parent="WIyWlLk6GJQsqaUBKTNV-1" vertex="1">
          <mxGeometry x="530" y="10" width="160" height="60" as="geometry" />
        </mxCell>
        <mxCell id="yi7wajlVVCb0jUOOM2uV-7" value="" style="line;strokeWidth=1;fillColor=none;align=left;verticalAlign=middle;spacingTop=-1;spacingLeft=3;spacingRight=3;rotatable=0;labelPosition=right;points=[];portConstraint=eastwest;strokeColor=inherit;fontSize=16;" parent="yi7wajlVVCb0jUOOM2uV-5" vertex="1">
          <mxGeometry y="26" width="160" height="8" as="geometry" />
        </mxCell>
        <mxCell id="yi7wajlVVCb0jUOOM2uV-8" value="+price():double" style="text;strokeColor=none;fillColor=none;align=left;verticalAlign=top;spacingLeft=4;spacingRight=4;overflow=hidden;rotatable=0;points=[[0,0.5],[1,0.5]];portConstraint=eastwest;whiteSpace=wrap;html=1;fontSize=16;" parent="yi7wajlVVCb0jUOOM2uV-5" vertex="1">
          <mxGeometry y="34" width="160" height="26" as="geometry" />
        </mxCell>
        <mxCell id="yi7wajlVVCb0jUOOM2uV-9" value="Extends" style="endArrow=block;endSize=16;endFill=0;html=1;rounded=0;fontSize=12;curved=1;exitX=-0.007;exitY=-0.068;exitDx=0;exitDy=0;exitPerimeter=0;entryX=1.001;entryY=0.142;entryDx=0;entryDy=0;entryPerimeter=0;" parent="WIyWlLk6GJQsqaUBKTNV-1" source="yi7wajlVVCb0jUOOM2uV-8" target="yi7wajlVVCb0jUOOM2uV-1" edge="1">
          <mxGeometry width="160" relative="1" as="geometry">
            <mxPoint x="510" y="290" as="sourcePoint" />
            <mxPoint x="670" y="290" as="targetPoint" />
          </mxGeometry>
        </mxCell>
        <mxCell id="yi7wajlVVCb0jUOOM2uV-10" value="Deluxe&lt;br&gt;" style="swimlane;fontStyle=1;align=center;verticalAlign=top;childLayout=stackLayout;horizontal=1;startSize=26;horizontalStack=0;resizeParent=1;resizeParentMax=0;resizeLast=0;collapsible=1;marginBottom=0;whiteSpace=wrap;html=1;fontSize=16;" parent="WIyWlLk6GJQsqaUBKTNV-1" vertex="1">
          <mxGeometry x="528" y="80" width="160" height="60" as="geometry" />
        </mxCell>
        <mxCell id="yi7wajlVVCb0jUOOM2uV-11" value="" style="line;strokeWidth=1;fillColor=none;align=left;verticalAlign=middle;spacingTop=-1;spacingLeft=3;spacingRight=3;rotatable=0;labelPosition=right;points=[];portConstraint=eastwest;strokeColor=inherit;fontSize=16;" parent="yi7wajlVVCb0jUOOM2uV-10" vertex="1">
          <mxGeometry y="26" width="160" height="8" as="geometry" />
        </mxCell>
        <mxCell id="yi7wajlVVCb0jUOOM2uV-12" value="+price():double" style="text;strokeColor=none;fillColor=none;align=left;verticalAlign=top;spacingLeft=4;spacingRight=4;overflow=hidden;rotatable=0;points=[[0,0.5],[1,0.5]];portConstraint=eastwest;whiteSpace=wrap;html=1;fontSize=16;" parent="yi7wajlVVCb0jUOOM2uV-10" vertex="1">
          <mxGeometry y="34" width="160" height="26" as="geometry" />
        </mxCell>
        <mxCell id="yi7wajlVVCb0jUOOM2uV-13" value="Extends" style="endArrow=block;endSize=16;endFill=0;html=1;rounded=0;fontSize=12;curved=1;exitX=-0.013;exitY=0.394;exitDx=0;exitDy=0;exitPerimeter=0;entryX=1.007;entryY=0.919;entryDx=0;entryDy=0;entryPerimeter=0;" parent="WIyWlLk6GJQsqaUBKTNV-1" source="yi7wajlVVCb0jUOOM2uV-10" target="yi7wajlVVCb0jUOOM2uV-1" edge="1">
          <mxGeometry width="160" relative="1" as="geometry">
            <mxPoint x="470" y="290" as="sourcePoint" />
            <mxPoint x="630" y="290" as="targetPoint" />
          </mxGeometry>
        </mxCell>
        <mxCell id="yi7wajlVVCb0jUOOM2uV-14" value="Meatzza" style="swimlane;fontStyle=1;align=center;verticalAlign=top;childLayout=stackLayout;horizontal=1;startSize=26;horizontalStack=0;resizeParent=1;resizeParentMax=0;resizeLast=0;collapsible=1;marginBottom=0;whiteSpace=wrap;html=1;fontSize=16;" parent="WIyWlLk6GJQsqaUBKTNV-1" vertex="1">
          <mxGeometry x="528" y="150" width="160" height="60" as="geometry" />
        </mxCell>
        <mxCell id="yi7wajlVVCb0jUOOM2uV-15" value="" style="line;strokeWidth=1;fillColor=none;align=left;verticalAlign=middle;spacingTop=-1;spacingLeft=3;spacingRight=3;rotatable=0;labelPosition=right;points=[];portConstraint=eastwest;strokeColor=inherit;fontSize=16;" parent="yi7wajlVVCb0jUOOM2uV-14" vertex="1">
          <mxGeometry y="26" width="160" height="8" as="geometry" />
        </mxCell>
        <mxCell id="yi7wajlVVCb0jUOOM2uV-16" value="+price():double" style="text;strokeColor=none;fillColor=none;align=left;verticalAlign=top;spacingLeft=4;spacingRight=4;overflow=hidden;rotatable=0;points=[[0,0.5],[1,0.5]];portConstraint=eastwest;whiteSpace=wrap;html=1;fontSize=16;" parent="yi7wajlVVCb0jUOOM2uV-14" vertex="1">
          <mxGeometry y="34" width="160" height="26" as="geometry" />
        </mxCell>
        <mxCell id="yi7wajlVVCb0jUOOM2uV-17" value="Extends" style="endArrow=block;endSize=16;endFill=0;html=1;rounded=0;fontSize=12;curved=1;exitX=-0.013;exitY=0.394;exitDx=0;exitDy=0;exitPerimeter=0;entryX=1.007;entryY=0.919;entryDx=0;entryDy=0;entryPerimeter=0;" parent="WIyWlLk6GJQsqaUBKTNV-1" source="yi7wajlVVCb0jUOOM2uV-14" edge="1">
          <mxGeometry width="160" relative="1" as="geometry">
            <mxPoint x="468" y="370" as="sourcePoint" />
            <mxPoint x="440" y="241" as="targetPoint" />
          </mxGeometry>
        </mxCell>
        <mxCell id="yi7wajlVVCb0jUOOM2uV-18" value="Pepperoni" style="swimlane;fontStyle=1;align=center;verticalAlign=top;childLayout=stackLayout;horizontal=1;startSize=26;horizontalStack=0;resizeParent=1;resizeParentMax=0;resizeLast=0;collapsible=1;marginBottom=0;whiteSpace=wrap;html=1;fontSize=16;" parent="WIyWlLk6GJQsqaUBKTNV-1" vertex="1">
          <mxGeometry x="528" y="220" width="160" height="60" as="geometry" />
        </mxCell>
        <mxCell id="yi7wajlVVCb0jUOOM2uV-19" value="" style="line;strokeWidth=1;fillColor=none;align=left;verticalAlign=middle;spacingTop=-1;spacingLeft=3;spacingRight=3;rotatable=0;labelPosition=right;points=[];portConstraint=eastwest;strokeColor=inherit;fontSize=16;" parent="yi7wajlVVCb0jUOOM2uV-18" vertex="1">
          <mxGeometry y="26" width="160" height="8" as="geometry" />
        </mxCell>
        <mxCell id="yi7wajlVVCb0jUOOM2uV-20" value="+price():double" style="text;strokeColor=none;fillColor=none;align=left;verticalAlign=top;spacingLeft=4;spacingRight=4;overflow=hidden;rotatable=0;points=[[0,0.5],[1,0.5]];portConstraint=eastwest;whiteSpace=wrap;html=1;fontSize=16;" parent="yi7wajlVVCb0jUOOM2uV-18" vertex="1">
          <mxGeometry y="34" width="160" height="26" as="geometry" />
        </mxCell>
        <mxCell id="yi7wajlVVCb0jUOOM2uV-21" value="Extends" style="endArrow=block;endSize=16;endFill=0;html=1;rounded=0;fontSize=12;curved=1;exitX=-0.013;exitY=0.394;exitDx=0;exitDy=0;exitPerimeter=0;entryX=1.007;entryY=0.919;entryDx=0;entryDy=0;entryPerimeter=0;" parent="WIyWlLk6GJQsqaUBKTNV-1" source="yi7wajlVVCb0jUOOM2uV-18" edge="1">
          <mxGeometry width="160" relative="1" as="geometry">
            <mxPoint x="468" y="450" as="sourcePoint" />
            <mxPoint x="440" y="321" as="targetPoint" />
          </mxGeometry>
        </mxCell>
        <mxCell id="yi7wajlVVCb0jUOOM2uV-22" value="Seafood&lt;br&gt;" style="swimlane;fontStyle=1;align=center;verticalAlign=top;childLayout=stackLayout;horizontal=1;startSize=26;horizontalStack=0;resizeParent=1;resizeParentMax=0;resizeLast=0;collapsible=1;marginBottom=0;whiteSpace=wrap;html=1;fontSize=16;" parent="WIyWlLk6GJQsqaUBKTNV-1" vertex="1">
          <mxGeometry x="528" y="290" width="250" height="100" as="geometry" />
        </mxCell>
        <mxCell id="yi7wajlVVCb0jUOOM2uV-23" value="" style="line;strokeWidth=1;fillColor=none;align=left;verticalAlign=middle;spacingTop=-1;spacingLeft=3;spacingRight=3;rotatable=0;labelPosition=right;points=[];portConstraint=eastwest;strokeColor=inherit;fontSize=16;" parent="yi7wajlVVCb0jUOOM2uV-22" vertex="1">
          <mxGeometry y="26" width="250" height="8" as="geometry" />
        </mxCell>
        <mxCell id="yi7wajlVVCb0jUOOM2uV-24" value="+price():double&lt;br&gt;+setSauce(Sauce sauce):void" style="text;strokeColor=none;fillColor=none;align=left;verticalAlign=top;spacingLeft=4;spacingRight=4;overflow=hidden;rotatable=0;points=[[0,0.5],[1,0.5]];portConstraint=eastwest;whiteSpace=wrap;html=1;fontSize=16;" parent="yi7wajlVVCb0jUOOM2uV-22" vertex="1">
          <mxGeometry y="34" width="250" height="66" as="geometry" />
        </mxCell>
        <mxCell id="yi7wajlVVCb0jUOOM2uV-25" value="Extends" style="endArrow=block;endSize=16;endFill=0;html=1;rounded=0;fontSize=12;curved=1;exitX=-0.013;exitY=0.394;exitDx=0;exitDy=0;exitPerimeter=0;entryX=1.007;entryY=0.919;entryDx=0;entryDy=0;entryPerimeter=0;" parent="WIyWlLk6GJQsqaUBKTNV-1" source="yi7wajlVVCb0jUOOM2uV-22" edge="1">
          <mxGeometry width="160" relative="1" as="geometry">
            <mxPoint x="468" y="520" as="sourcePoint" />
            <mxPoint x="440" y="391" as="targetPoint" />
          </mxGeometry>
        </mxCell>
        <mxCell id="yi7wajlVVCb0jUOOM2uV-28" value="Supreme" style="swimlane;fontStyle=1;align=center;verticalAlign=top;childLayout=stackLayout;horizontal=1;startSize=26;horizontalStack=0;resizeParent=1;resizeParentMax=0;resizeLast=0;collapsible=1;marginBottom=0;whiteSpace=wrap;html=1;fontSize=16;" parent="WIyWlLk6GJQsqaUBKTNV-1" vertex="1">
          <mxGeometry x="528" y="400" width="250" height="100" as="geometry" />
        </mxCell>
        <mxCell id="yi7wajlVVCb0jUOOM2uV-29" value="" style="line;strokeWidth=1;fillColor=none;align=left;verticalAlign=middle;spacingTop=-1;spacingLeft=3;spacingRight=3;rotatable=0;labelPosition=right;points=[];portConstraint=eastwest;strokeColor=inherit;fontSize=16;" parent="yi7wajlVVCb0jUOOM2uV-28" vertex="1">
          <mxGeometry y="26" width="250" height="8" as="geometry" />
        </mxCell>
        <mxCell id="yi7wajlVVCb0jUOOM2uV-30" value="+price():double&lt;br&gt;+setSauce(Sauce sauce):void" style="text;strokeColor=none;fillColor=none;align=left;verticalAlign=top;spacingLeft=4;spacingRight=4;overflow=hidden;rotatable=0;points=[[0,0.5],[1,0.5]];portConstraint=eastwest;whiteSpace=wrap;html=1;fontSize=16;" parent="yi7wajlVVCb0jUOOM2uV-28" vertex="1">
          <mxGeometry y="34" width="250" height="66" as="geometry" />
        </mxCell>
        <mxCell id="yi7wajlVVCb0jUOOM2uV-31" value="Extends" style="endArrow=block;endSize=16;endFill=0;html=1;rounded=0;fontSize=12;curved=1;exitX=-0.013;exitY=0.394;exitDx=0;exitDy=0;exitPerimeter=0;entryX=1.015;entryY=0.962;entryDx=0;entryDy=0;entryPerimeter=0;" parent="WIyWlLk6GJQsqaUBKTNV-1" source="yi7wajlVVCb0jUOOM2uV-28" target="yi7wajlVVCb0jUOOM2uV-3" edge="1">
          <mxGeometry width="160" relative="1" as="geometry">
            <mxPoint x="468" y="634" as="sourcePoint" />
            <mxPoint x="440" y="505" as="targetPoint" />
          </mxGeometry>
        </mxCell>
        <mxCell id="QZ8onxzTzEqCRuj4e2hm-0" value="PizzaMaker" style="swimlane;fontStyle=0;childLayout=stackLayout;horizontal=1;startSize=26;fillColor=none;horizontalStack=0;resizeParent=1;resizeParentMax=0;resizeLast=0;collapsible=1;marginBottom=0;whiteSpace=wrap;html=1;" parent="WIyWlLk6GJQsqaUBKTNV-1" vertex="1">
          <mxGeometry x="150" y="800" width="260" height="52" as="geometry" />
        </mxCell>
        <mxCell id="QZ8onxzTzEqCRuj4e2hm-1" value="+createPizza(String pizzaType):static Pizza" style="text;strokeColor=none;fillColor=none;align=left;verticalAlign=top;spacingLeft=4;spacingRight=4;overflow=hidden;rotatable=0;points=[[0,0.5],[1,0.5]];portConstraint=eastwest;whiteSpace=wrap;html=1;" parent="QZ8onxzTzEqCRuj4e2hm-0" vertex="1">
          <mxGeometry y="26" width="260" height="26" as="geometry" />
        </mxCell>
        <mxCell id="QZ8onxzTzEqCRuj4e2hm-5" value="Use" style="endArrow=open;endSize=12;dashed=1;html=1;rounded=0;entryX=0.469;entryY=1.02;entryDx=0;entryDy=0;entryPerimeter=0;exitX=0.556;exitY=-0.092;exitDx=0;exitDy=0;exitPerimeter=0;" parent="WIyWlLk6GJQsqaUBKTNV-1" target="yi7wajlVVCb0jUOOM2uV-3" edge="1" source="QZ8onxzTzEqCRuj4e2hm-0">
          <mxGeometry width="160" relative="1" as="geometry">
            <mxPoint x="260" y="530" as="sourcePoint" />
            <mxPoint x="420" y="530" as="targetPoint" />
          </mxGeometry>
        </mxCell>
        <mxCell id="QZ8onxzTzEqCRuj4e2hm-6" value="Order" style="swimlane;fontStyle=1;align=center;verticalAlign=top;childLayout=stackLayout;horizontal=1;startSize=26;horizontalStack=0;resizeParent=1;resizeParentMax=0;resizeLast=0;collapsible=1;marginBottom=0;whiteSpace=wrap;html=1;" parent="WIyWlLk6GJQsqaUBKTNV-1" vertex="1">
          <mxGeometry x="-215" y="-50" width="220" height="240" as="geometry" />
        </mxCell>
        <mxCell id="QZ8onxzTzEqCRuj4e2hm-7" value="-nextOrderId: static int&lt;br&gt;-orderId:final int&lt;br&gt;-pizzas:final List&amp;lt;Pizza&amp;gt;&lt;br&gt;-totalAmount:double" style="text;strokeColor=none;fillColor=none;align=left;verticalAlign=top;spacingLeft=4;spacingRight=4;overflow=hidden;rotatable=0;points=[[0,0.5],[1,0.5]];portConstraint=eastwest;whiteSpace=wrap;html=1;" parent="QZ8onxzTzEqCRuj4e2hm-6" vertex="1">
          <mxGeometry y="26" width="220" height="74" as="geometry" />
        </mxCell>
        <mxCell id="QZ8onxzTzEqCRuj4e2hm-8" value="" style="line;strokeWidth=1;fillColor=none;align=left;verticalAlign=middle;spacingTop=-1;spacingLeft=3;spacingRight=3;rotatable=0;labelPosition=right;points=[];portConstraint=eastwest;strokeColor=inherit;" parent="QZ8onxzTzEqCRuj4e2hm-6" vertex="1">
          <mxGeometry y="100" width="220" height="8" as="geometry" />
        </mxCell>
        <mxCell id="QZ8onxzTzEqCRuj4e2hm-9" value="+Order()&lt;br&gt;+addPizza(Pizza pizza):void&lt;br&gt;+getOrderId():int&lt;br&gt;+getPizzas():List&amp;lt;Pizza&amp;gt;&lt;br&gt;+getTotalAmount():double&lt;br&gt;+calculateTax():double&lt;br&gt;+getOrderTotal():double&lt;br&gt;+toString():String" style="text;strokeColor=none;fillColor=none;align=left;verticalAlign=top;spacingLeft=4;spacingRight=4;overflow=hidden;rotatable=0;points=[[0,0.5],[1,0.5]];portConstraint=eastwest;whiteSpace=wrap;html=1;" parent="QZ8onxzTzEqCRuj4e2hm-6" vertex="1">
          <mxGeometry y="108" width="220" height="132" as="geometry" />
        </mxCell>
        <mxCell id="QZ8onxzTzEqCRuj4e2hm-10" value="Use" style="endArrow=open;endSize=12;dashed=1;html=1;rounded=0;entryX=-0.018;entryY=-0.07;entryDx=0;entryDy=0;entryPerimeter=0;" parent="QZ8onxzTzEqCRuj4e2hm-6" target="yi7wajlVVCb0jUOOM2uV-1" edge="1">
          <mxGeometry width="160" relative="1" as="geometry">
            <mxPoint x="100" as="sourcePoint" />
            <mxPoint x="260" as="targetPoint" />
          </mxGeometry>
        </mxCell>
        <mxCell id="QZ8onxzTzEqCRuj4e2hm-12" value="OrderBreaker" style="swimlane;fontStyle=1;align=center;verticalAlign=top;childLayout=stackLayout;horizontal=1;startSize=26;horizontalStack=0;resizeParent=1;resizeParentMax=0;resizeLast=0;collapsible=1;marginBottom=0;whiteSpace=wrap;html=1;" parent="WIyWlLk6GJQsqaUBKTNV-1" vertex="1">
          <mxGeometry x="-545" y="270" width="240" height="180" as="geometry" />
        </mxCell>
        <mxCell id="QZ8onxzTzEqCRuj4e2hm-13" value="-order:static Order&lt;br&gt;-StoreOrder:static StoreOrder&lt;br&gt;" style="text;strokeColor=none;fillColor=none;align=left;verticalAlign=top;spacingLeft=4;spacingRight=4;overflow=hidden;rotatable=0;points=[[0,0.5],[1,0.5]];portConstraint=eastwest;whiteSpace=wrap;html=1;" parent="QZ8onxzTzEqCRuj4e2hm-12" vertex="1">
          <mxGeometry y="26" width="240" height="44" as="geometry" />
        </mxCell>
        <mxCell id="QZ8onxzTzEqCRuj4e2hm-14" value="" style="line;strokeWidth=1;fillColor=none;align=left;verticalAlign=middle;spacingTop=-1;spacingLeft=3;spacingRight=3;rotatable=0;labelPosition=right;points=[];portConstraint=eastwest;strokeColor=inherit;" parent="QZ8onxzTzEqCRuj4e2hm-12" vertex="1">
          <mxGeometry y="70" width="240" height="8" as="geometry" />
        </mxCell>
        <mxCell id="QZ8onxzTzEqCRuj4e2hm-15" value="-OrderBreaker()&lt;br&gt;+getorder():static Order&lt;br&gt;+createNewOrder():static Order&lt;br&gt;+getStoreOrder():static StoreOrder&lt;br&gt;+createNewStoreOrder():static StoreOrder" style="text;strokeColor=none;fillColor=none;align=left;verticalAlign=top;spacingLeft=4;spacingRight=4;overflow=hidden;rotatable=0;points=[[0,0.5],[1,0.5]];portConstraint=eastwest;whiteSpace=wrap;html=1;" parent="QZ8onxzTzEqCRuj4e2hm-12" vertex="1">
          <mxGeometry y="78" width="240" height="102" as="geometry" />
        </mxCell>
        <mxCell id="QZ8onxzTzEqCRuj4e2hm-16" value="Use" style="endArrow=open;endSize=12;dashed=1;html=1;rounded=0;entryX=0.5;entryY=1.023;entryDx=0;entryDy=0;entryPerimeter=0;exitX=0.5;exitY=0;exitDx=0;exitDy=0;" parent="WIyWlLk6GJQsqaUBKTNV-1" source="QZ8onxzTzEqCRuj4e2hm-12" target="QZ8onxzTzEqCRuj4e2hm-9" edge="1">
          <mxGeometry width="160" relative="1" as="geometry">
            <mxPoint x="-140" y="290" as="sourcePoint" />
            <mxPoint x="20" y="290" as="targetPoint" />
          </mxGeometry>
        </mxCell>
        <mxCell id="QZ8onxzTzEqCRuj4e2hm-17" value="&lt;p style=&quot;margin:0px;margin-top:4px;text-align:center;&quot;&gt;&lt;i&gt;&amp;lt;&amp;lt;enumeration&amp;gt;&amp;gt;&lt;/i&gt;&lt;br&gt;&lt;/p&gt;&lt;p style=&quot;margin:0px;margin-top:4px;text-align:center;&quot;&gt;&lt;b style=&quot;&quot;&gt;Sauce&lt;/b&gt;&lt;/p&gt;&lt;hr size=&quot;1&quot;&gt;&lt;p style=&quot;margin:0px;margin-left:4px;&quot;&gt;+ TOMATO&lt;br&gt;&lt;/p&gt;&lt;p style=&quot;margin:0px;margin-left:4px;&quot;&gt;+ ALFREDO&lt;/p&gt;" style="verticalAlign=top;align=left;overflow=fill;fontSize=12;fontFamily=Helvetica;html=1;whiteSpace=wrap;" parent="WIyWlLk6GJQsqaUBKTNV-1" vertex="1">
          <mxGeometry x="10" y="620" width="190" height="140" as="geometry" />
        </mxCell>
        <mxCell id="QZ8onxzTzEqCRuj4e2hm-18" value="Use" style="endArrow=open;endSize=12;dashed=1;html=1;rounded=0;exitX=0.5;exitY=0;exitDx=0;exitDy=0;entryX=0.006;entryY=1.006;entryDx=0;entryDy=0;entryPerimeter=0;" parent="WIyWlLk6GJQsqaUBKTNV-1" source="QZ8onxzTzEqCRuj4e2hm-17" target="yi7wajlVVCb0jUOOM2uV-3" edge="1">
          <mxGeometry width="160" relative="1" as="geometry">
            <mxPoint x="120" y="300" as="sourcePoint" />
            <mxPoint x="40" y="570" as="targetPoint" />
          </mxGeometry>
        </mxCell>
        <mxCell id="QZ8onxzTzEqCRuj4e2hm-20" value="&lt;p style=&quot;margin:0px;margin-top:4px;text-align:center;&quot;&gt;&lt;span&gt;&amp;lt;&amp;lt;enumeration&amp;gt;&amp;gt;&lt;/span&gt;&lt;br&gt;&lt;/p&gt;&lt;p style=&quot;margin:0px;margin-top:4px;text-align:center;&quot;&gt;&lt;b style=&quot;&quot;&gt;Size&lt;/b&gt;&lt;/p&gt;&lt;hr size=&quot;1&quot;&gt;&lt;p style=&quot;margin:0px;margin-left:4px;&quot;&gt;+SMALL&lt;/p&gt;&lt;p style=&quot;margin:0px;margin-left:4px;&quot;&gt;+MEDIUM&lt;/p&gt;&lt;p style=&quot;margin:0px;margin-left:4px;&quot;&gt;+LARGE&lt;/p&gt;" style="verticalAlign=top;align=left;overflow=fill;fontSize=12;fontFamily=Helvetica;html=1;whiteSpace=wrap;fontStyle=0" parent="WIyWlLk6GJQsqaUBKTNV-1" vertex="1">
          <mxGeometry x="-200" y="670" width="190" height="140" as="geometry" />
        </mxCell>
        <mxCell id="QZ8onxzTzEqCRuj4e2hm-21" value="Use" style="endArrow=open;endSize=12;dashed=1;html=1;rounded=0;entryX=-0.009;entryY=0.525;entryDx=0;entryDy=0;entryPerimeter=0;exitX=1;exitY=0;exitDx=0;exitDy=0;" parent="WIyWlLk6GJQsqaUBKTNV-1" source="QZ8onxzTzEqCRuj4e2hm-20" target="yi7wajlVVCb0jUOOM2uV-3" edge="1">
          <mxGeometry width="160" relative="1" as="geometry">
            <mxPoint x="30" y="570" as="sourcePoint" />
            <mxPoint x="280" y="330" as="targetPoint" />
          </mxGeometry>
        </mxCell>
        <mxCell id="QZ8onxzTzEqCRuj4e2hm-22" value="StoreOrder" style="swimlane;fontStyle=1;align=center;verticalAlign=top;childLayout=stackLayout;horizontal=1;startSize=26;horizontalStack=0;resizeParent=1;resizeParentMax=0;resizeLast=0;collapsible=1;marginBottom=0;whiteSpace=wrap;html=1;" parent="WIyWlLk6GJQsqaUBKTNV-1" vertex="1">
          <mxGeometry x="-520" width="220" height="190" as="geometry" />
        </mxCell>
        <mxCell id="QZ8onxzTzEqCRuj4e2hm-23" value="-nextOrderNumber:static int&lt;br&gt;-orders:List&amp;lt;Order&amp;gt;" style="text;strokeColor=none;fillColor=none;align=left;verticalAlign=top;spacingLeft=4;spacingRight=4;overflow=hidden;rotatable=0;points=[[0,0.5],[1,0.5]];portConstraint=eastwest;whiteSpace=wrap;html=1;" parent="QZ8onxzTzEqCRuj4e2hm-22" vertex="1">
          <mxGeometry y="26" width="220" height="34" as="geometry" />
        </mxCell>
        <mxCell id="QZ8onxzTzEqCRuj4e2hm-24" value="" style="line;strokeWidth=1;fillColor=none;align=left;verticalAlign=middle;spacingTop=-1;spacingLeft=3;spacingRight=3;rotatable=0;labelPosition=right;points=[];portConstraint=eastwest;strokeColor=inherit;" parent="QZ8onxzTzEqCRuj4e2hm-22" vertex="1">
          <mxGeometry y="60" width="220" height="8" as="geometry" />
        </mxCell>
        <mxCell id="QZ8onxzTzEqCRuj4e2hm-25" value="+StoreOrder()&lt;br&gt;+addOrder(Order order):void&lt;br&gt;+getOrders():List&amp;lt;Order&amp;gt;&lt;br&gt;+exportToFile(String filename):void&lt;br&gt;+getNextOrderNumber():static int" style="text;strokeColor=none;fillColor=none;align=left;verticalAlign=top;spacingLeft=4;spacingRight=4;overflow=hidden;rotatable=0;points=[[0,0.5],[1,0.5]];portConstraint=eastwest;whiteSpace=wrap;html=1;" parent="QZ8onxzTzEqCRuj4e2hm-22" vertex="1">
          <mxGeometry y="68" width="220" height="122" as="geometry" />
        </mxCell>
        <mxCell id="QZ8onxzTzEqCRuj4e2hm-30" value="Use" style="endArrow=open;endSize=12;dashed=1;html=1;rounded=0;entryX=0.014;entryY=0.406;entryDx=0;entryDy=0;entryPerimeter=0;exitX=0.5;exitY=0;exitDx=0;exitDy=0;" parent="WIyWlLk6GJQsqaUBKTNV-1" source="QZ8onxzTzEqCRuj4e2hm-27" target="yi7wajlVVCb0jUOOM2uV-3" edge="1">
          <mxGeometry width="160" relative="1" as="geometry">
            <mxPoint x="-330" y="570" as="sourcePoint" />
            <mxPoint x="-170" y="570" as="targetPoint" />
          </mxGeometry>
        </mxCell>
        <mxCell id="QZ8onxzTzEqCRuj4e2hm-31" value="BuildYourOwnController" style="swimlane;fontStyle=1;align=center;verticalAlign=top;childLayout=stackLayout;horizontal=1;startSize=26;horizontalStack=0;resizeParent=1;resizeParentMax=0;resizeLast=0;collapsible=1;marginBottom=0;whiteSpace=wrap;html=1;" parent="WIyWlLk6GJQsqaUBKTNV-1" vertex="1">
          <mxGeometry x="-550" y="470" width="280" height="490" as="geometry" />
        </mxCell>
        <mxCell id="QZ8onxzTzEqCRuj4e2hm-32" value="+TomatoSauceCheckBox:Checkbox&lt;br&gt;+AlfredoSauceCheckBox:Checkbox&lt;br&gt;+availableToppingsLabel:Label&lt;br&gt;+selectedToppingsLabel:Label&lt;br&gt;+totalPriceBox:Text&lt;br&gt;-pizzaComboBox:ComboBox&amp;lt;String&amp;gt;&lt;br&gt;-pizzaImageview:ImageView&lt;br&gt;-toppingsListView:ListView&amp;lt;Topping&amp;gt;&lt;br&gt;-extraCheeseCheckBox:CheckBox&lt;br&gt;-extraSauceCheckBox:CheckBox&lt;br&gt;-totalPriceLabel:Label&lt;br&gt;-refreshButton:Button&lt;br&gt;-confirmButton:Button&lt;br&gt;-availableToppingsListView:ListView&amp;lt;Topping&amp;gt;&lt;br&gt;-addToppingButton:Button&lt;br&gt;-removeToppingButton:Button&lt;br&gt;-selectedToppingsListView:ListView&amp;lt;Topping&amp;gt;&lt;br&gt;-currentPizza:Pizza" style="text;strokeColor=none;fillColor=none;align=left;verticalAlign=top;spacingLeft=4;spacingRight=4;overflow=hidden;rotatable=0;points=[[0,0.5],[1,0.5]];portConstraint=eastwest;whiteSpace=wrap;html=1;" parent="QZ8onxzTzEqCRuj4e2hm-31" vertex="1">
          <mxGeometry y="26" width="280" height="284" as="geometry" />
        </mxCell>
        <mxCell id="QZ8onxzTzEqCRuj4e2hm-33" value="" style="line;strokeWidth=1;fillColor=none;align=left;verticalAlign=middle;spacingTop=-1;spacingLeft=3;spacingRight=3;rotatable=0;labelPosition=right;points=[];portConstraint=eastwest;strokeColor=inherit;" parent="QZ8onxzTzEqCRuj4e2hm-31" vertex="1">
          <mxGeometry y="310" width="280" height="8" as="geometry" />
        </mxCell>
        <mxCell id="QZ8onxzTzEqCRuj4e2hm-34" value="+ initialize():void&lt;br&gt;+ setupListener():void&lt;br&gt;- updatePizzaToppingsAndPrice():void&lt;br&gt;- updatePrice() : void&lt;br&gt;- updatePizzaImage(String PizzaName): void&lt;br&gt;- getImagePathForPizza(String PizzaName): String&lt;br&gt;+handleAddTopping():void&lt;br&gt;- showAlert(String title, String message): void&lt;br&gt;+ handleRemoveTopping():void&lt;br&gt;-handleConfirmAction():void" style="text;strokeColor=none;fillColor=none;align=left;verticalAlign=top;spacingLeft=4;spacingRight=4;overflow=hidden;rotatable=0;points=[[0,0.5],[1,0.5]];portConstraint=eastwest;whiteSpace=wrap;html=1;" parent="QZ8onxzTzEqCRuj4e2hm-31" vertex="1">
          <mxGeometry y="318" width="280" height="172" as="geometry" />
        </mxCell>
        <mxCell id="QZ8onxzTzEqCRuj4e2hm-26" value="Use" style="endArrow=open;endSize=12;dashed=1;html=1;rounded=0;entryX=0.005;entryY=-0.011;entryDx=0;entryDy=0;entryPerimeter=0;exitX=1.008;exitY=0.292;exitDx=0;exitDy=0;exitPerimeter=0;" parent="WIyWlLk6GJQsqaUBKTNV-1" source="QZ8onxzTzEqCRuj4e2hm-25" target="QZ8onxzTzEqCRuj4e2hm-9" edge="1">
          <mxGeometry width="160" relative="1" as="geometry">
            <mxPoint x="-310" y="98.55" as="sourcePoint" />
            <mxPoint x="-150" y="98.55" as="targetPoint" />
          </mxGeometry>
        </mxCell>
        <mxCell id="c6NAwcyI4ZkL_lYZ3Zoa-0" value="Use" style="endArrow=open;endSize=12;dashed=1;html=1;rounded=0;exitX=1.007;exitY=0.018;exitDx=0;exitDy=0;exitPerimeter=0;entryX=0;entryY=0.35;entryDx=0;entryDy=0;entryPerimeter=0;" parent="WIyWlLk6GJQsqaUBKTNV-1" source="QZ8onxzTzEqCRuj4e2hm-32" target="QZ8onxzTzEqCRuj4e2hm-27" edge="1">
          <mxGeometry width="160" relative="1" as="geometry">
            <mxPoint x="-240" y="610" as="sourcePoint" />
            <mxPoint x="-80" y="610" as="targetPoint" />
          </mxGeometry>
        </mxCell>
        <mxCell id="c6NAwcyI4ZkL_lYZ3Zoa-1" value="Use" style="endArrow=open;endSize=12;dashed=1;html=1;rounded=0;entryX=0.25;entryY=0;entryDx=0;entryDy=0;" parent="WIyWlLk6GJQsqaUBKTNV-1" source="QZ8onxzTzEqCRuj4e2hm-27" target="QZ8onxzTzEqCRuj4e2hm-20" edge="1">
          <mxGeometry width="160" relative="1" as="geometry">
            <mxPoint x="-240" y="530" as="sourcePoint" />
            <mxPoint x="-80" y="530" as="targetPoint" />
          </mxGeometry>
        </mxCell>
        <mxCell id="c6NAwcyI4ZkL_lYZ3Zoa-2" value="" style="endArrow=open;endSize=12;dashed=1;html=1;rounded=0;exitX=1.004;exitY=0.317;exitDx=0;exitDy=0;exitPerimeter=0;entryX=0.006;entryY=0.981;entryDx=0;entryDy=0;entryPerimeter=0;" parent="WIyWlLk6GJQsqaUBKTNV-1" source="QZ8onxzTzEqCRuj4e2hm-32" target="yi7wajlVVCb0jUOOM2uV-3" edge="1">
          <mxGeometry width="160" relative="1" as="geometry">
            <mxPoint x="-240" y="530" as="sourcePoint" />
            <mxPoint x="-80" y="530" as="targetPoint" />
          </mxGeometry>
        </mxCell>
        <mxCell id="QZ8onxzTzEqCRuj4e2hm-27" value="&lt;p style=&quot;margin:0px;margin-top:4px;text-align:center;&quot;&gt;&lt;span&gt;&amp;lt;&amp;lt;enumeration&amp;gt;&amp;gt;&lt;/span&gt;&lt;br&gt;&lt;/p&gt;&lt;p style=&quot;margin:0px;margin-top:4px;text-align:center;&quot;&gt;&lt;b&gt;Topping&lt;/b&gt;&lt;/p&gt;&lt;hr size=&quot;1&quot;&gt;&lt;p style=&quot;margin:0px;margin-left:4px;&quot;&gt;+PEPPERONI&lt;/p&gt;&lt;p style=&quot;margin:0px;margin-left:4px;&quot;&gt;+MUSHROOMS&lt;/p&gt;&lt;p style=&quot;margin:0px;margin-left:4px;&quot;&gt;+ONIONS&lt;/p&gt;&lt;p style=&quot;margin:0px;margin-left:4px;&quot;&gt;+SAUSAGE&lt;/p&gt;&lt;p style=&quot;margin:0px;margin-left:4px;&quot;&gt;+BACON&lt;/p&gt;&lt;p style=&quot;margin:0px;margin-left:4px;&quot;&gt;+SHRIMP&lt;/p&gt;&lt;p style=&quot;margin:0px;margin-left:4px;&quot;&gt;+BLACK_OLIVES&lt;br&gt;+GREEN_PEPPERS&lt;br&gt;+SQUID&lt;br&gt;+CRAB_MEATS&lt;br&gt;+BEEF&lt;br&gt;+PINEAPPLE&lt;br&gt;+SPINACH&lt;br&gt;+HAM&lt;/p&gt;&lt;p style=&quot;margin:0px;margin-left:4px;&quot;&gt;&lt;br&gt;&lt;/p&gt;" style="verticalAlign=top;align=left;overflow=fill;fontSize=12;fontFamily=Helvetica;html=1;whiteSpace=wrap;fontStyle=0" parent="WIyWlLk6GJQsqaUBKTNV-1" vertex="1">
          <mxGeometry x="-250" y="220" width="190" height="260" as="geometry" />
        </mxCell>
        <mxCell id="1mr4OdW8BR9NjUNWEltS-1" value="Use" style="endArrow=open;endSize=12;dashed=1;html=1;rounded=0;entryX=0.542;entryY=1.115;entryDx=0;entryDy=0;entryPerimeter=0;exitX=1.011;exitY=0.633;exitDx=0;exitDy=0;exitPerimeter=0;" edge="1" parent="WIyWlLk6GJQsqaUBKTNV-1" source="QZ8onxzTzEqCRuj4e2hm-34" target="QZ8onxzTzEqCRuj4e2hm-1">
          <mxGeometry width="160" relative="1" as="geometry">
            <mxPoint x="280" y="900" as="sourcePoint" />
            <mxPoint x="450" y="900" as="targetPoint" />
          </mxGeometry>
        </mxCell>
        <mxCell id="1mr4OdW8BR9NjUNWEltS-2" value="MainController" style="swimlane;fontStyle=1;align=center;verticalAlign=top;childLayout=stackLayout;horizontal=1;startSize=26;horizontalStack=0;resizeParent=1;resizeParentMax=0;resizeLast=0;collapsible=1;marginBottom=0;whiteSpace=wrap;html=1;" vertex="1" parent="WIyWlLk6GJQsqaUBKTNV-1">
          <mxGeometry x="520" y="890" width="310" height="270" as="geometry" />
        </mxCell>
        <mxCell id="1mr4OdW8BR9NjUNWEltS-3" value="&lt;div&gt;- btnCurrentOrder: Button&lt;/div&gt;&lt;div&gt;- btnCustom: Button&lt;/div&gt;&lt;div&gt;- btnSpecialty: Button&lt;/div&gt;&lt;div&gt;- btnStoreOrders: Button&lt;/div&gt;&lt;div&gt;- imgCurrentOrder: ImageView&lt;/div&gt;&lt;div&gt;- imgCustom: ImageView&lt;/div&gt;&lt;div&gt;- imgSpecialty: ImageView&lt;/div&gt;&lt;div&gt;- imgStoreOrders: ImageView&lt;/div&gt;" style="text;strokeColor=none;fillColor=none;align=left;verticalAlign=top;spacingLeft=4;spacingRight=4;overflow=hidden;rotatable=0;points=[[0,0.5],[1,0.5]];portConstraint=eastwest;whiteSpace=wrap;html=1;" vertex="1" parent="1mr4OdW8BR9NjUNWEltS-2">
          <mxGeometry y="26" width="310" height="134" as="geometry" />
        </mxCell>
        <mxCell id="1mr4OdW8BR9NjUNWEltS-4" value="" style="line;strokeWidth=1;fillColor=none;align=left;verticalAlign=middle;spacingTop=-1;spacingLeft=3;spacingRight=3;rotatable=0;labelPosition=right;points=[];portConstraint=eastwest;strokeColor=inherit;" vertex="1" parent="1mr4OdW8BR9NjUNWEltS-2">
          <mxGeometry y="160" width="310" height="8" as="geometry" />
        </mxCell>
        <mxCell id="1mr4OdW8BR9NjUNWEltS-5" value="+initialize():void&lt;br&gt;-setCursorHandOnHover(Imageview imageView):void&lt;br&gt;+handleOrderSpecialty():void&lt;br&gt;-handleBuildYourOwn():void&lt;br&gt;-handleOrderlist():void&lt;br&gt;-handleStoreOrderlist():void" style="text;strokeColor=none;fillColor=none;align=left;verticalAlign=top;spacingLeft=4;spacingRight=4;overflow=hidden;rotatable=0;points=[[0,0.5],[1,0.5]];portConstraint=eastwest;whiteSpace=wrap;html=1;" vertex="1" parent="1mr4OdW8BR9NjUNWEltS-2">
          <mxGeometry y="168" width="310" height="102" as="geometry" />
        </mxCell>
        <mxCell id="1mr4OdW8BR9NjUNWEltS-6" value="OrderlistController.java" style="swimlane;fontStyle=1;align=center;verticalAlign=top;childLayout=stackLayout;horizontal=1;startSize=26;horizontalStack=0;resizeParent=1;resizeParentMax=0;resizeLast=0;collapsible=1;marginBottom=0;whiteSpace=wrap;html=1;" vertex="1" parent="WIyWlLk6GJQsqaUBKTNV-1">
          <mxGeometry x="160" y="-400" width="220" height="300" as="geometry" />
        </mxCell>
        <mxCell id="1mr4OdW8BR9NjUNWEltS-7" value="&lt;div&gt;- totalCostField: TextField&lt;/div&gt;&lt;div&gt;- orderList: ListView&amp;lt;Pizza&amp;gt;&lt;/div&gt;&lt;div&gt;- orderNumberField: TextField&lt;/div&gt;&lt;div&gt;- placeOrderButton: Button&lt;/div&gt;&lt;div&gt;- removePizzaButton: Button&lt;/div&gt;&lt;div&gt;- subtotalField: TextField&lt;/div&gt;&lt;div&gt;- totalTaxField: TextField&lt;/div&gt;&lt;div&gt;&lt;span style=&quot;background-color: initial;&quot;&gt;- currentOrder: Order&lt;/span&gt;&lt;br&gt;&lt;/div&gt;" style="text;strokeColor=none;fillColor=none;align=left;verticalAlign=top;spacingLeft=4;spacingRight=4;overflow=hidden;rotatable=0;points=[[0,0.5],[1,0.5]];portConstraint=eastwest;whiteSpace=wrap;html=1;" vertex="1" parent="1mr4OdW8BR9NjUNWEltS-6">
          <mxGeometry y="26" width="220" height="164" as="geometry" />
        </mxCell>
        <mxCell id="1mr4OdW8BR9NjUNWEltS-8" value="" style="line;strokeWidth=1;fillColor=none;align=left;verticalAlign=middle;spacingTop=-1;spacingLeft=3;spacingRight=3;rotatable=0;labelPosition=right;points=[];portConstraint=eastwest;strokeColor=inherit;" vertex="1" parent="1mr4OdW8BR9NjUNWEltS-6">
          <mxGeometry y="190" width="220" height="8" as="geometry" />
        </mxCell>
        <mxCell id="1mr4OdW8BR9NjUNWEltS-9" value="&lt;div&gt;+ updateOrderList(): void&lt;/div&gt;&lt;div&gt;+ updateOrderDetails(): void&lt;/div&gt;&lt;div&gt;+ handlePlaceOrderAction(): void&lt;/div&gt;&lt;div&gt;+ handleRemovePizzaAction(): void&lt;/div&gt;&lt;div&gt;+ showAlert(String, String): void&lt;/div&gt;" style="text;strokeColor=none;fillColor=none;align=left;verticalAlign=top;spacingLeft=4;spacingRight=4;overflow=hidden;rotatable=0;points=[[0,0.5],[1,0.5]];portConstraint=eastwest;whiteSpace=wrap;html=1;" vertex="1" parent="1mr4OdW8BR9NjUNWEltS-6">
          <mxGeometry y="198" width="220" height="102" as="geometry" />
        </mxCell>
        <mxCell id="1mr4OdW8BR9NjUNWEltS-10" value="Use" style="endArrow=open;endSize=12;dashed=1;html=1;rounded=0;exitX=0.42;exitY=1.004;exitDx=0;exitDy=0;exitPerimeter=0;entryX=0.5;entryY=0;entryDx=0;entryDy=0;" edge="1" parent="WIyWlLk6GJQsqaUBKTNV-1" source="1mr4OdW8BR9NjUNWEltS-9" target="yi7wajlVVCb0jUOOM2uV-0">
          <mxGeometry width="160" relative="1" as="geometry">
            <mxPoint x="130" y="-160" as="sourcePoint" />
            <mxPoint x="290" y="-160" as="targetPoint" />
          </mxGeometry>
        </mxCell>
        <mxCell id="1mr4OdW8BR9NjUNWEltS-11" value="PizzaToppingManager" style="swimlane;fontStyle=1;align=center;verticalAlign=top;childLayout=stackLayout;horizontal=1;startSize=26;horizontalStack=0;resizeParent=1;resizeParentMax=0;resizeLast=0;collapsible=1;marginBottom=0;whiteSpace=wrap;html=1;" vertex="1" parent="WIyWlLk6GJQsqaUBKTNV-1">
          <mxGeometry x="480" y="610" width="310" height="130" as="geometry" />
        </mxCell>
        <mxCell id="1mr4OdW8BR9NjUNWEltS-12" value="- pizzaToppingsMap: Map&amp;lt;String, List&amp;lt;String&amp;gt;&amp;gt;" style="text;strokeColor=none;fillColor=none;align=left;verticalAlign=top;spacingLeft=4;spacingRight=4;overflow=hidden;rotatable=0;points=[[0,0.5],[1,0.5]];portConstraint=eastwest;whiteSpace=wrap;html=1;" vertex="1" parent="1mr4OdW8BR9NjUNWEltS-11">
          <mxGeometry y="26" width="310" height="34" as="geometry" />
        </mxCell>
        <mxCell id="1mr4OdW8BR9NjUNWEltS-13" value="" style="line;strokeWidth=1;fillColor=none;align=left;verticalAlign=middle;spacingTop=-1;spacingLeft=3;spacingRight=3;rotatable=0;labelPosition=right;points=[];portConstraint=eastwest;strokeColor=inherit;" vertex="1" parent="1mr4OdW8BR9NjUNWEltS-11">
          <mxGeometry y="60" width="310" height="8" as="geometry" />
        </mxCell>
        <mxCell id="1mr4OdW8BR9NjUNWEltS-14" value="+ PizzaToppingsManager(): void&lt;br&gt;+ initializeToppingsMap(): void&lt;br&gt;+ getToppingsForPizza(pizzaType: String): List&amp;lt;String&amp;gt;" style="text;strokeColor=none;fillColor=none;align=left;verticalAlign=top;spacingLeft=4;spacingRight=4;overflow=hidden;rotatable=0;points=[[0,0.5],[1,0.5]];portConstraint=eastwest;whiteSpace=wrap;html=1;" vertex="1" parent="1mr4OdW8BR9NjUNWEltS-11">
          <mxGeometry y="68" width="310" height="62" as="geometry" />
        </mxCell>
        <mxCell id="1mr4OdW8BR9NjUNWEltS-15" value="SpecialtyPizzaController" style="swimlane;fontStyle=1;align=center;verticalAlign=top;childLayout=stackLayout;horizontal=1;startSize=26;horizontalStack=0;resizeParent=1;resizeParentMax=0;resizeLast=0;collapsible=1;marginBottom=0;whiteSpace=wrap;html=1;" vertex="1" parent="WIyWlLk6GJQsqaUBKTNV-1">
          <mxGeometry x="160" y="990" width="300" height="480" as="geometry" />
        </mxCell>
        <mxCell id="1mr4OdW8BR9NjUNWEltS-16" value="&lt;div&gt;- sauceLabel : Label&lt;/div&gt;&lt;div&gt;- totalPrice : Text&lt;/div&gt;&lt;div&gt;- pizzaComboBox : ComboBox&amp;lt;String&amp;gt;&lt;/div&gt;&lt;div&gt;- pizzaImageView : ImageView&lt;/div&gt;&lt;div&gt;- sizeToggleGroup : ToggleGroup&lt;/div&gt;&lt;div&gt;- sizeSmall : RadioButton&lt;/div&gt;&lt;div&gt;- sizeMedium : RadioButton&lt;/div&gt;&lt;div&gt;- sizeLarge : RadioButton&lt;/div&gt;&lt;div&gt;- toppingsListView : ListView&amp;lt;String&amp;gt;&lt;/div&gt;&lt;div&gt;- extraCheeseCheckBox : CheckBox&lt;/div&gt;&lt;div&gt;- extraSauceCheckBox : CheckBox&lt;/div&gt;&lt;div&gt;- sauceAlfredoCheckBox : CheckBox&lt;/div&gt;&lt;div&gt;- sauceTomatoCheckBox : CheckBox&lt;/div&gt;&lt;div&gt;- totalPriceLabel : Label&lt;/div&gt;&lt;div&gt;- confirmButton : Button&lt;/div&gt;&lt;div&gt;- refreshButton : Button&lt;/div&gt;" style="text;strokeColor=none;fillColor=none;align=left;verticalAlign=top;spacingLeft=4;spacingRight=4;overflow=hidden;rotatable=0;points=[[0,0.5],[1,0.5]];portConstraint=eastwest;whiteSpace=wrap;html=1;" vertex="1" parent="1mr4OdW8BR9NjUNWEltS-15">
          <mxGeometry y="26" width="300" height="244" as="geometry" />
        </mxCell>
        <mxCell id="1mr4OdW8BR9NjUNWEltS-17" value="" style="line;strokeWidth=1;fillColor=none;align=left;verticalAlign=middle;spacingTop=-1;spacingLeft=3;spacingRight=3;rotatable=0;labelPosition=right;points=[];portConstraint=eastwest;strokeColor=inherit;" vertex="1" parent="1mr4OdW8BR9NjUNWEltS-15">
          <mxGeometry y="270" width="300" height="8" as="geometry" />
        </mxCell>
        <mxCell id="1mr4OdW8BR9NjUNWEltS-18" value="&lt;div&gt;+ initialize() : void&lt;/div&gt;&lt;div&gt;-setupListeners() : void&lt;/div&gt;&lt;div&gt;-updatePizzaImage(pizzaName : String) : void&lt;/div&gt;&lt;div&gt;-getImagePathForPizza(pizzaName : String) : String&lt;/div&gt;&lt;div&gt;-displaySauceForPizza(pizzaName : String) : void&lt;/div&gt;&lt;div&gt;-updateToppingsList(pizzaName : String) : void&lt;/div&gt;&lt;div&gt;-updatePrice() : void&lt;/div&gt;&lt;div&gt;-getSizePrice(selectedSize : RadioButton) : double&lt;/div&gt;&lt;div&gt;-getExtraPrice() : double&lt;/div&gt;&lt;div&gt;+ handleConfirmAction() : void&lt;/div&gt;&lt;div&gt;-getSizeForPizza() : Size&lt;/div&gt;&lt;div&gt;-showAlert(title : String,message : String) : void&lt;/div&gt;&lt;div&gt;+ handleRefreshAction() : void&lt;/div&gt;" style="text;strokeColor=none;fillColor=none;align=left;verticalAlign=top;spacingLeft=4;spacingRight=4;overflow=hidden;rotatable=0;points=[[0,0.5],[1,0.5]];portConstraint=eastwest;whiteSpace=wrap;html=1;" vertex="1" parent="1mr4OdW8BR9NjUNWEltS-15">
          <mxGeometry y="278" width="300" height="202" as="geometry" />
        </mxCell>
        <mxCell id="1mr4OdW8BR9NjUNWEltS-20" value="StoreOrderController" style="swimlane;fontStyle=1;align=center;verticalAlign=top;childLayout=stackLayout;horizontal=1;startSize=26;horizontalStack=0;resizeParent=1;resizeParentMax=0;resizeLast=0;collapsible=1;marginBottom=0;whiteSpace=wrap;html=1;" vertex="1" parent="WIyWlLk6GJQsqaUBKTNV-1">
          <mxGeometry x="-500" y="-370" width="250" height="300" as="geometry" />
        </mxCell>
        <mxCell id="1mr4OdW8BR9NjUNWEltS-21" value="&lt;div&gt;-orderComboBox:ComboBox&amp;lt;Integer&amp;gt;&lt;/div&gt;&lt;div&gt;-orderTotal:TextField&lt;/div&gt;&lt;div&gt;-storeOrderList:ListView&amp;lt;Order&amp;gt;&lt;/div&gt;&lt;div&gt;-dispatchOrderButton:Button&lt;/div&gt;&lt;div&gt;-cancelOrderButton:Button&lt;/div&gt;" style="text;strokeColor=none;fillColor=none;align=left;verticalAlign=top;spacingLeft=4;spacingRight=4;overflow=hidden;rotatable=0;points=[[0,0.5],[1,0.5]];portConstraint=eastwest;whiteSpace=wrap;html=1;" vertex="1" parent="1mr4OdW8BR9NjUNWEltS-20">
          <mxGeometry y="26" width="250" height="114" as="geometry" />
        </mxCell>
        <mxCell id="1mr4OdW8BR9NjUNWEltS-22" value="" style="line;strokeWidth=1;fillColor=none;align=left;verticalAlign=middle;spacingTop=-1;spacingLeft=3;spacingRight=3;rotatable=0;labelPosition=right;points=[];portConstraint=eastwest;strokeColor=inherit;" vertex="1" parent="1mr4OdW8BR9NjUNWEltS-20">
          <mxGeometry y="140" width="250" height="8" as="geometry" />
        </mxCell>
        <mxCell id="1mr4OdW8BR9NjUNWEltS-23" value="&lt;div&gt;+initialize():void&lt;/div&gt;&lt;div&gt;-initialize():void&lt;/div&gt;&lt;div&gt;-loadComboBoxItems():void&lt;/div&gt;&lt;div&gt;-loadStoreOrderDetails(orderId:Integer):void&lt;/div&gt;&lt;div&gt;-setupEventHandlers():void&lt;/div&gt;&lt;div&gt;-updateOrderTotal(orderId:Integer):void&lt;/div&gt;&lt;div&gt;-exportOrders():void&lt;/div&gt;&lt;div&gt;-cancelSelectedOrder():void&lt;/div&gt;&lt;div&gt;-showAlert(title:String,content:String):void&lt;/div&gt;" style="text;strokeColor=none;fillColor=none;align=left;verticalAlign=top;spacingLeft=4;spacingRight=4;overflow=hidden;rotatable=0;points=[[0,0.5],[1,0.5]];portConstraint=eastwest;whiteSpace=wrap;html=1;" vertex="1" parent="1mr4OdW8BR9NjUNWEltS-20">
          <mxGeometry y="148" width="250" height="152" as="geometry" />
        </mxCell>
        <mxCell id="1mr4OdW8BR9NjUNWEltS-24" value="Use" style="endArrow=open;endSize=12;dashed=1;html=1;rounded=0;exitX=1;exitY=0;exitDx=0;exitDy=0;entryX=0.855;entryY=1;entryDx=0;entryDy=0;entryPerimeter=0;" edge="1" parent="WIyWlLk6GJQsqaUBKTNV-1" source="1mr4OdW8BR9NjUNWEltS-15" target="yi7wajlVVCb0jUOOM2uV-3">
          <mxGeometry width="160" relative="1" as="geometry">
            <mxPoint x="440" y="930" as="sourcePoint" />
            <mxPoint x="440" y="670" as="targetPoint" />
          </mxGeometry>
        </mxCell>
        <mxCell id="1mr4OdW8BR9NjUNWEltS-26" value="Use" style="endArrow=open;endSize=12;dashed=1;html=1;rounded=0;exitX=1.005;exitY=0.802;exitDx=0;exitDy=0;exitPerimeter=0;entryX=0.318;entryY=-0.007;entryDx=0;entryDy=0;entryPerimeter=0;" edge="1" parent="WIyWlLk6GJQsqaUBKTNV-1" source="1mr4OdW8BR9NjUNWEltS-21" target="QZ8onxzTzEqCRuj4e2hm-6">
          <mxGeometry width="160" relative="1" as="geometry">
            <mxPoint x="-330" y="-80" as="sourcePoint" />
            <mxPoint x="-170" y="-80" as="targetPoint" />
          </mxGeometry>
        </mxCell>
        <mxCell id="1mr4OdW8BR9NjUNWEltS-27" value="Use" style="endArrow=open;endSize=12;dashed=1;html=1;rounded=0;exitX=0.601;exitY=-0.002;exitDx=0;exitDy=0;exitPerimeter=0;entryX=0.797;entryY=1.078;entryDx=0;entryDy=0;entryPerimeter=0;" edge="1" parent="WIyWlLk6GJQsqaUBKTNV-1" source="1mr4OdW8BR9NjUNWEltS-15" target="QZ8onxzTzEqCRuj4e2hm-1">
          <mxGeometry width="160" relative="1" as="geometry">
            <mxPoint x="390" y="930" as="sourcePoint" />
            <mxPoint x="380" y="870" as="targetPoint" />
          </mxGeometry>
        </mxCell>
      </root>
    </mxGraphModel>
  </diagram>
</mxfile>
